<svg xmlns="http://www.w3.org/2000/svg" width="31" height="22.002" viewBox="0 0 31 22.002" class=""><g data-name="グループ 3629"><path data-name="中マド 1" d="M15.501 21.502c-.094 0-9.413-.008-11.72-.627a3.756 3.756 0 01-2.652-2.652 39.166 39.166 0 01-.628-7.221 39.219 39.219 0 01.628-7.223 3.76 3.76 0 012.652-2.652C6.088.508 15.407.5 15.501.5s9.413.008 11.72.627a3.76 3.76 0 012.652 2.652 39.219 39.219 0 01.628 7.223 39.166 39.166 0 01-.628 7.221 3.755 3.755 0 01-2.652 2.652c-2.308.619-11.627.627-11.72.627zm-3-15v9l7.793-4.5-7.793-4.5z" fill="#fff" stroke="rgba(0,0,0,0)" stroke-miterlimit="10" class="youtube-icon_svg__youtube"></path></g></svg>